<?xml version="1.0" encoding="UTF-8" standalone="no"?>
<!-- Created with Inkscape (http://www.inkscape.org/) -->

<svg
   xmlns:dc="http://purl.org/dc/elements/1.1/"
   xmlns:cc="http://creativecommons.org/ns#"
   xmlns:rdf="http://www.w3.org/1999/02/22-rdf-syntax-ns#"
   xmlns:svg="http://www.w3.org/2000/svg"
   xmlns="http://www.w3.org/2000/svg"
   xmlns:inkscape="http://www.inkscape.org/namespaces/inkscape"
   version="1.1"
   width="1771.6534"
   height="1771.6534"
   id="svg2"
   xml:space="preserve"><metadata
     id="metadata8"><rdf:RDF><cc:Work
         rdf:about=""><dc:format>image/svg+xml</dc:format><dc:type
           rdf:resource="http://purl.org/dc/dcmitype/StillImage" /></cc:Work></rdf:RDF></metadata><defs
     id="defs6" /><g
     transform="matrix(1.25,0,0,-1.25,0,1771.6534)"
     id="g10"><g
       id="g12"><path
         d="m 0,1417.323 1417.324,0 0,-1417.324 L 0,-0.001 0,1417.323 z"
         inkscape:connector-curvature="0"
         id="path14"
         style="fill:#ececec;fill-opacity:1;fill-rule:nonzero;stroke:none" /><path
         d="m 1201.016,707.206 c 0,-273.368 -221.567,-494.942 -494.934,-494.942 -273.316,0 -494.93,221.574 -494.93,494.942 0,273.316 221.614,494.89 494.93,494.89 273.367,0 494.934,-221.574 494.934,-494.89 z"
         inkscape:connector-curvature="0"
         id="path16"
         style="fill:#ffd42a;fill-opacity:1;fill-rule:nonzero;stroke:none" /><path
         d="m 271.781,782.284 c -7.609,-3.801 -14.91,-6.879 -21.988,-9.223 -6.996,-2.383 -13.77,-3.996 -20.305,-4.922 -17.222,-2.156 -31.605,0.77 -43.062,8.77 -11.496,8.07 -18.258,19.871 -20.293,35.363 -1.309,10.227 -0.965,20.148 1.07,29.687 2.039,9.536 5.77,18.454 11.231,26.762 6.339,9.84 14.461,17.754 24.3,23.836 9.914,6.152 20.985,9.992 33.219,11.527 6.762,0.926 13.574,1.004 20.453,0.317 6.84,-0.738 13.918,-2.234 21.223,-4.461 l -2,-27.223 c -5.965,3.387 -11.84,5.688 -17.688,6.918 -5.765,1.231 -11.8,1.426 -18.148,0.621 -13.219,-1.773 -23.641,-8.269 -31.219,-19.539 -7.609,-11.297 -10.414,-24.566 -8.457,-39.832 1.309,-9.843 5.078,-17.222 11.231,-22.144 6.222,-4.844 14.183,-6.614 23.84,-5.383 5.835,0.695 11.878,2.5 18.14,5.383 6.231,2.961 13.07,7.234 20.453,12.765 l -2,-29.222 z m 68.129,133.031 33.07,4.312 -3.238,-49.992 48.762,6.309 3.07,49.98 33.063,4.313 -8.457,-131.34 -32.91,-4.309 3.542,55.676 -48.75,-6.308 -3.386,-55.668 -33.071,-4.313 8.305,131.34 z m 179.586,23.414 89.203,11.684 -1.691,-25.68 -56.133,-7.379 -1.543,-24.305 52.754,6.93 -1.691,-25.687 -52.747,-6.918 -1.695,-29.993 57.828,7.539 -1.539,-25.687 -91.043,-11.84 8.297,131.336 z m 153.024,19.914 89.203,11.691 -1.692,-25.679 -56.133,-7.383 -1.546,-24.301 52.757,6.922 -1.695,-25.68 -52.746,-6.929 -1.691,-29.981 57.824,7.531 -1.543,-25.679 -91.047,-11.844 8.309,131.332 z m 241.761,27.301 -1.851,-27.688 c -6.879,2.235 -13.61,3.731 -20.145,4.461 -6.457,0.817 -12.687,0.844 -18.605,0.157 -8.227,-1.153 -14.535,-3.309 -18.914,-6.457 -4.313,-3.188 -6.153,-7.075 -5.543,-11.692 0.382,-2.883 1.73,-4.992 4.004,-6.301 2.226,-1.347 6.683,-2.312 13.378,-2.922 l 13.997,-1.695 c 11.683,-1.453 20.492,-4.535 26.445,-9.219 5.926,-4.734 9.461,-11.351 10.609,-19.843 1.852,-13.957 -1.996,-25.836 -11.535,-35.68 -9.449,-9.766 -23.019,-15.77 -40.746,-17.992 -8.309,-1.153 -16.684,-1.508 -25.07,-1.082 -8.414,0.5 -16.762,1.769 -25.071,3.847 l 1.852,28.602 c 8.07,-3.609 15.875,-5.953 23.375,-7.066 7.453,-1.161 14.648,-1.309 21.527,-0.461 7.688,0.992 13.614,3.304 17.844,6.918 4.301,3.691 6.152,7.992 5.531,12.914 -0.422,3.16 -1.801,5.461 -4.152,6.918 -2.383,1.429 -7.184,2.617 -14.457,3.543 l -14.145,1.535 c -10.265,1.113 -18.152,4.035 -23.683,8.769 -5.461,4.688 -8.731,11.262 -9.84,19.688 -1.774,13.297 1.918,24.644 11.07,33.984 9.223,9.422 22.453,15.266 39.676,17.531 6.84,0.926 13.996,1.27 21.379,1.071 7.461,-0.106 15.148,-0.727 23.07,-1.84 z m 70.66,13.379 89.204,11.691 -1.696,-25.687 -56.129,-7.383 -1.535,-24.293 52.746,6.922 -1.695,-25.692 -52.746,-6.918 -1.692,-29.992 57.825,7.539 -1.535,-25.676 -91.043,-11.843 8.296,131.332 z m 241.762,27.301 -1.851,-27.688 c -6.879,2.234 -13.614,3.731 -20.149,4.461 -6.457,0.805 -12.683,0.844 -18.601,0.156 -8.227,-1.152 -14.536,-3.308 -18.918,-6.457 -4.309,-3.199 -6.149,-7.078 -5.539,-11.691 0.382,-2.887 1.73,-5 4.003,-6.301 2.227,-1.348 6.684,-2.312 13.379,-2.922 l 13.996,-1.695 c 11.68,-1.465 20.493,-4.535 26.446,-9.231 5.926,-4.726 9.457,-11.339 10.621,-19.832 1.84,-13.957 -2.008,-25.836 -11.535,-35.679 -9.461,-9.766 -23.032,-15.77 -40.758,-17.993 -8.309,-1.16 -16.684,-1.507 -25.07,-1.082 -8.415,0.5 -16.762,1.77 -25.071,3.848 l 1.852,28.602 c 8.07,-3.614 15.875,-5.953 23.375,-7.078 7.461,-1.149 14.648,-1.297 21.527,-0.461 7.695,1.003 13.613,3.308 17.844,6.929 4.301,3.692 6.152,7.992 5.531,12.914 -0.422,3.149 -1.801,5.461 -4.152,6.918 -2.383,1.426 -7.188,2.617 -14.449,3.543 l -14.153,1.535 c -10.265,1.114 -18.152,4.036 -23.683,8.762 -5.461,4.695 -8.731,11.27 -9.84,19.684 -1.774,13.308 1.918,24.644 11.07,33.996 9.223,9.418 22.453,15.258 39.676,17.531 6.84,0.922 13.996,1.27 21.379,1.07 7.461,-0.117 15.148,-0.726 23.07,-1.839 z"
         inkscape:connector-curvature="0"
         id="path18"
         style="fill:#333333;fill-opacity:1;fill-rule:nonzero;stroke:none" /><path
         d="m 177.895,492.088 38.445,5.223 24.152,-62.125 32.137,69.508 39.988,5.387 -7.539,-123.957 -29.527,-3.997 5.543,91.504 -33.379,-71.515 -16.762,-2.305 -25.371,63.82 -5.387,-91.496 -29.527,-4.004 7.227,123.957 z m 234.3,31.258 84.27,11.219 -1.375,-24.141 -52.906,-6.922 -1.536,-23.07 49.825,6.613 -1.387,-24.289 -49.824,-6.613 -1.535,-28.297 54.597,7.223 -1.39,-24.145 -85.965,-11.535 7.226,123.957 z m 245.52,-27.992 37.836,-57.203 -31.832,-4.156 -24.918,37.836 -29.992,-45.215 -33.672,-4.461 45.976,69.203 -36.449,55.059 31.844,4.3 23.68,-35.519 27.992,42.293 33.828,4.605 -44.293,-66.742 z m 133.457,78.555 31.367,4.3 -7.527,-124.105 -31.074,-4.152 7.234,123.957 z m 219.183,-87.973 c -7,-3.691 -13.839,-6.695 -20.601,-8.918 -6.692,-2.156 -13.082,-3.652 -19.231,-4.461 -16.222,-2.152 -29.796,0.535 -40.75,8.152 -10.886,7.567 -17.304,18.641 -19.222,33.219 -1.309,9.723 -1.004,19.063 0.914,27.992 1.93,8.997 5.465,17.45 10.621,25.372 5.836,9.222 13.418,16.761 22.758,22.609 9.301,5.836 19.761,9.527 31.375,11.074 6.222,0.805 12.648,0.848 19.222,0.149 6.536,-0.614 13.258,-2 20.149,-4.157 l -1.692,-25.679 c -5.652,3.269 -11.23,5.425 -16.761,6.457 -5.465,1.113 -11.192,1.308 -17.227,0.621 -12.539,-1.77 -22.379,-8 -29.527,-18.77 -7.074,-10.679 -9.656,-23.219 -7.695,-37.676 1.23,-9.222 4.773,-16.144 10.609,-20.757 5.848,-4.539 13.308,-6.153 22.461,-4.922 5.531,0.687 11.219,2.461 17.066,5.226 5.848,2.766 12.305,6.77 19.379,11.996 l -1.848,-27.527 z m 183.395,91.238 c -1.23,9.528 -4.301,16.45 -9.223,20.758 -4.922,4.379 -11.457,6.074 -19.539,5.078 -10.875,-1.465 -19.34,-7.5 -25.371,-18.148 -6.074,-10.57 -8.109,-23.188 -6.152,-37.836 1.23,-9.223 4.312,-16.141 9.23,-20.758 4.922,-4.535 11.145,-6.269 18.762,-5.226 6.231,0.808 11.613,2.808 16.152,5.996 4.606,3.148 8.219,7.609 10.914,13.375 2.539,5.304 4.301,11.113 5.227,17.382 0.926,6.34 0.926,12.805 0,19.379 z m -27.531,49.215 c 16.191,2.145 29.765,-0.621 40.758,-8.308 10.957,-7.688 17.414,-18.719 19.382,-33.063 1.297,-9.84 1.071,-19.379 -0.769,-28.609 -1.77,-9.145 -5.078,-17.532 -10,-25.219 -5.848,-9.535 -13.305,-17.074 -22.301,-22.606 -9.035,-5.464 -19.797,-9.039 -32.297,-10.769 -15.992,-2.078 -29.484,0.687 -40.441,8.309 -11.004,7.566 -17.461,18.531 -19.379,32.91 -1.309,9.914 -1.113,19.449 0.609,28.605 1.852,9.223 5.239,17.688 10.157,25.371 5.73,9.539 13.074,17 21.988,22.453 8.996,5.539 19.765,9.153 32.293,10.926 z"
         inkscape:connector-curvature="0"
         id="path20"
         style="fill:#333333;fill-opacity:1;fill-rule:nonzero;stroke:none" /><path
         d="m 700.973,697.784 c 0.148,0.613 0.308,1.683 0.465,3.074 l 0,4.457 c 0,16.762 -9.696,28.918 -23.997,28.918 -8.457,0 -16.14,-3.543 -23.375,-10.77 -7.078,-7.074 -11.683,-15.687 -13.535,-25.679 -0.765,-4.153 -0.609,-5.078 -0.609,-7.539 0,-16.762 10.148,-29.063 24.605,-29.063 8.149,0 15.836,3.531 23.063,10.766 7.074,7.383 11.535,15.996 13.383,25.836 z m -12.766,0 c -1.848,-9.075 -4.457,-16.309 -8,-21.692 -4.145,-5.687 -8.918,-8.758 -14.766,-8.758 -8.757,0 -12.91,7.379 -12.91,19.063 0,3.691 0.305,7.383 0.922,11.387 1.844,9.066 4.461,16.144 7.992,21.527 4.157,5.848 9.235,8.77 14.922,8.77 8.762,0 12.914,-7.235 12.914,-19.075 0,-3.386 -0.461,-7.078 -1.074,-11.222 z m 41.832,26.144 -14.152,-80.738 c -3.375,-18.918 -7.227,-25.996 -12.914,-25.996 -3.848,0 -6.004,2.305 -6.457,6.922 -0.317,4.613 -2.008,6.918 -4.469,6.918 -3.84,0 -5.992,-1.692 -6.606,-5.532 -0.312,-0.156 -0.312,-0.769 -0.312,-1.535 0,-6.468 6.004,-12.617 15.844,-12.617 6.152,0 11.539,2.457 15.839,7.234 4.762,5.383 8.149,13.532 10.145,24.606 l 14.156,80.738 15.992,0 1.379,6.918 -15.984,0 3.375,19.684 c 1.852,10.453 4.922,18.457 8.613,24.144 3.227,4.618 6.614,6.922 10.305,6.922 3.996,0 6.457,-2.304 7.234,-6.922 1.075,-4.617 2.766,-6.918 5.375,-6.918 3.543,0 5.539,1.536 6.153,4.922 0.617,3.383 -0.614,6.614 -3.535,9.535 -3.387,3.379 -7.844,5.227 -13.375,5.227 -6.614,0 -12.926,-3.227 -19.075,-9.684 -6.617,-7.078 -10.769,-15.996 -12.765,-27.226 l -3.387,-19.684 -12.914,0 -1.387,-6.918 12.922,0 z"
         inkscape:connector-curvature="0"
         id="path22"
         style="fill:#3c3c3c;fill-opacity:1;fill-rule:nonzero;stroke:none" /></g></g></svg>